# xmcd
#
# Track frame offsets:
#	150
#	17771
#	40701
#	63106
#	88154
#	115397
#	133947
#	154325
#	169115
#	192570
# Disc length: 2854 seconds
# Revision: 1
# Processed by: cddbd v1.5.2PL0 Copyright (c) Steve Scherf et al.
#
# Submitted via: libkcddb 0.31
#
DISCID=880b240a
DTITLE=Various Artist - Feiert Jesus! Lobpreis 10 Klassiker
DYEAR=2009
DGENRE=Contemporary Christian
TTITLE0=Herr der Ewigkeit
TTITLE1=Komm, jetzt ist die Zeit, wir beten an
TTITLE2=Herr, öffne du mir die Augen
TTITLE3=Herr, ich komme zu dir
TTITLE4=Anker in der Zeit
TTITLE5=Treu
TTITLE6=Ein Leben für Gott
TTITLE7=Allein deine Gnade genügt
TTITLE8=Wo ich auch stehe
TTITLE9=Bis ans Ende der Welt
EXTD=
EXTT0=
EXTT1=
EXTT2=
EXTT3=
EXTT4=
EXTT5=
EXTT6=
EXTT7=
EXTT8=
EXTT9=
PLAYORDER=
